<svg xmlns="http://www.w3.org/2000/svg" width="180" height="81" viewBox="0 0 400 178.667"><path d="M167.335 74.317h.118l8.258-22.338h1.456v25.014h-1.28V55.586h-.057l-8.028 21.407h-.756c-.069-.008-.438-.923-1.107-2.733l-7.04-18.674h-.058v21.407h-1.337V51.979h1.395c.109.047.613 1.347 1.516 3.896l6.92 18.442zm15.836 2.676h-1.281V51.979h1.281v25.014zm24.386-12.856v.696c0 3.037-1.203 5.887-3.605 8.553-2.646 2.407-5.517 3.607-8.609 3.607h-7.446V51.979h6.863c3.84 0 7.078 1.414 9.718 4.247 2.051 2.461 3.079 5.099 3.079 7.911zm-13.439-10.822h-4.888v22.283h7.101a9.86 9.86 0 0 0 3.084-.816c.443-.115 1.315-.639 2.614-1.57 2.794-2.461 4.189-5.371 4.189-8.725 0-3.006-1.183-5.739-3.55-8.205l-1.453-1.16c-1.795-1.068-3.522-1.65-5.179-1.746l-.929-.116-.989.055zm37.825 10.822v.696c0 3.037-1.203 5.887-3.607 8.553-2.646 2.407-5.518 3.607-8.609 3.607h-7.445V51.979h6.865c3.838 0 7.076 1.414 9.715 4.247 2.053 2.461 3.081 5.099 3.081 7.911zm-13.438-10.822h-4.887v22.283h7.095a9.815 9.815 0 0 0 3.086-.816c.445-.115 1.318-.639 2.618-1.57 2.791-2.461 4.187-5.371 4.187-8.725 0-3.006-1.183-5.739-3.547-8.205l-1.453-1.16c-1.797-1.068-3.521-1.65-5.18-1.746l-.932-.116-.987.055zm19.557 22.34h18.267v1.338h-19.663V51.979h1.396v23.676zm35.846-23.676h6.806v1.396h-6.979c-3.664 0-6.709 1.533-9.133 4.594a11.492 11.492 0 0 0-2.033 5.062l-.119.872h12.566v1.34H262.45c.193 1.978.853 3.857 1.978 5.643 1.405 1.928 3.093 3.266 5.062 4.016 1.144.541 2.733.814 4.77.814h6.457v1.277h-7.386c-3.434 0-6.516-1.434-9.248-4.306-.993-1.259-1.689-2.404-2.098-3.431-.619-1.824-.93-3.414-.93-4.77 0-1.707.467-3.608 1.396-5.703 1.444-2.627 3.501-4.546 6.167-5.758a13.643 13.643 0 0 1 5.29-1.046zm36.108 0h6.807v1.396h-6.98c-3.665 0-6.711 1.533-9.134 4.594a11.508 11.508 0 0 0-2.036 5.062l-.118.872h12.567v1.34h-12.567c.195 1.978.854 3.857 1.979 5.643 1.408 1.928 3.096 3.266 5.062 4.016 1.145.541 2.733.814 4.77.814h6.46v1.277h-7.389c-3.432 0-6.516-1.434-9.25-4.306-.988-1.259-1.688-2.404-2.096-3.431-.619-1.824-.93-3.414-.93-4.77 0-1.707.467-3.608 1.395-5.703 1.445-2.627 3.502-4.546 6.17-5.758a13.621 13.621 0 0 1 5.29-1.046zm22.072.116c1.737.136 3.365.66 4.889 1.572 2.829 1.879 4.245 4.557 4.245 8.027v15.299h-1.339V65.302h-16.926v11.691h-1.413l.017-14.717c0-3.055.95-5.536 2.851-7.448 1.174-1.218 2.938-2.073 5.293-2.56.154-.074.947-.135 2.383-.173zm-9.191 10.24v1.685h16.984v-2.442c0-2.192-.873-4.207-2.615-6.049-1.834-1.32-3.716-1.996-5.646-2.037-2.78 0-4.991.951-6.632 2.853-1.392 1.616-2.091 3.613-2.091 5.99zm29.795-10.297h12.857v1.277h-11.812c-1.813 0-3.032.197-3.665.583-1.784.981-2.675 2.571-2.675 4.771 0 2.095.969 3.685 2.907 4.769.756.273 1.396.408 1.92.408h7.972c.783 0 1.772.406 2.967 1.221 1.551 1.406 2.326 3.193 2.326 5.354 0 2.598-1.104 4.559-3.315 5.875-.981.466-1.833.697-2.56.697h-13.67v-1.222h11.69c1.862 0 3.062-.153 3.606-.466 1.938-.939 2.908-2.627 2.908-5.061 0-.763-.29-1.716-.87-2.852-.582-.957-1.533-1.656-2.852-2.092l-1.105-.174h-7.795c-1.319 0-2.617-.66-3.896-1.979-1.049-1.378-1.572-2.794-1.572-4.245v-.295c0-2.218.894-4.041 2.675-5.466a7.552 7.552 0 0 1 3.959-1.103zm37.243 1.277h-9.134v23.678h-1.336V53.315h-9.192v-1.336h19.662v1.336zM170.361 84.472h6.806v1.397h-6.98c-3.665 0-6.708 1.53-9.134 4.595a11.545 11.545 0 0 0-2.036 5.061l-.118.873h12.568v1.336h-12.568c.195 1.979.854 3.859 1.98 5.645 1.406 1.931 3.094 3.267 5.06 4.015 1.144.543 2.735.815 4.771.815h6.458v1.277h-7.388c-3.434 0-6.516-1.434-9.251-4.305-.987-1.26-1.688-2.402-2.093-3.432-.621-1.824-.932-3.414-.932-4.771 0-1.707.467-3.606 1.395-5.703 1.447-2.627 3.504-4.545 6.17-5.758a13.656 13.656 0 0 1 5.292-1.045zm11.529 0h1.573c.288.29 1.958 2.559 5.004 6.805l3.312 4.54h.06l6.749-9.133c1.006-1.408 1.568-2.146 1.687-2.212h1.395v.059l-9.075 12.449 9.133 12.506h-1.57l-7.677-10.469-.641-.814c-.777.971-3.372 4.498-7.798 10.586l-.578.697h-1.455l9.075-12.449-9.194-12.565zm44.167 5.643v1.862c0 .317-.214 1.112-.641 2.383-.766 1.406-1.932 2.433-3.491 3.084-.892.193-1.512.289-1.86.289H207.79v11.752h-1.336V84.472h13.031c1.656 0 3.091.466 4.304 1.397 1.047.987 1.688 1.938 1.919 2.851l.349 1.395zm-8.262-4.305h-10.007v10.588h12.218c1.514 0 2.811-.717 3.896-2.15.621-.935.932-2 .932-3.201 0-2.151-.988-3.76-2.967-4.83-.844-.311-1.6-.451-2.27-.421l-1.802.014zm22.641-1.106c1.996 0 3.877.504 5.644 1.512 1.688 1.135 2.831 2.416 3.433 3.84.348.621.641 1.631.872 3.025l.058 1.104v5.758c0 2.716-.93 5.005-2.791 6.863-1.91 1.784-4.295 2.678-7.153 2.678h-.524c-1.726 0-3.568-.639-5.527-1.918-2.441-1.979-3.666-4.713-3.666-8.202v-4.482c0-2.11.488-4.031 1.455-5.756 1.213-1.871 2.92-3.17 5.119-3.898 1.167-.34 2.197-.514 3.08-.524zm-8.26 10.124v4.422c0 4.274 1.994 7.088 5.99 8.436 1.085.193 1.842.289 2.27.289h.465c1.591 0 3.199-.504 4.83-1.512.893-.623 1.57-1.32 2.035-2.092.639-.809 1.105-2.127 1.396-3.959v-5.761c-.036-2.646-1.163-4.896-3.372-6.746-1.67-1.049-3.122-1.573-4.364-1.573l-.756-.116c-.938 0-2.047.194-3.315.582-1.996.756-3.472 2.117-4.42 4.073a10.722 10.722 0 0 0-.759 3.957zm44.364-10.124c1.999 0 3.879.504 5.646 1.512 1.687 1.135 2.826 2.416 3.431 3.84.35.621.641 1.631.872 3.025l.059 1.104v5.758c0 2.716-.931 5.005-2.792 6.863-1.909 1.784-4.294 2.678-7.155 2.678h-.521c-1.727 0-3.569-.639-5.527-1.918-2.443-1.979-3.665-4.713-3.665-8.202v-4.482c0-2.11.485-4.031 1.453-5.756 1.212-1.871 2.921-3.17 5.121-3.898 1.168-.34 2.196-.514 3.078-.524zm-8.261 10.124v4.422c0 4.274 1.996 7.088 5.99 8.436 1.09.193 1.844.289 2.271.289h.465c1.59 0 3.202-.504 4.828-1.512.894-.623 1.571-1.32 2.038-2.092.64-.809 1.104-2.127 1.395-3.959v-5.761c-.037-2.646-1.162-4.896-3.373-6.746-1.668-1.049-3.121-1.573-4.363-1.573l-.756-.116c-.941 0-2.043.194-3.314.582-1.999.756-3.471 2.117-4.421 4.073a10.662 10.662 0 0 0-.76 3.957zm42.597-4.537v1.688c-.226 1.365-.632 2.451-1.222 3.257-1.322 1.667-3.067 2.499-5.238 2.499l6.398 11.17-1.16.582c-4.385-7.678-6.651-11.596-6.809-11.752h-10.238v11.752h-1.338V84.472h13.496c1.279 0 2.54.447 3.78 1.338.756.639 1.319 1.359 1.688 2.152.427.991.643 1.762.643 2.329zm-18.269-4.538v10.645h11.229c2.161 0 3.655-.562 4.479-1.688a5.36 5.36 0 0 0 1.339-3.605c0-1.697-.622-3.113-1.863-4.248-1.096-.736-2.123-1.104-3.084-1.104h-12.1zm35.846-1.281h6.805v1.453h-6.805c-2.799 0-5.266.893-7.385 2.678a13.59 13.59 0 0 0-2.099 2.326c-1.104 1.715-1.726 3.383-1.859 5.002l-.059.408v.406l-.059.233c0 .94.251 2.239.755 3.896.729 1.658 1.716 3.094 2.969 4.306l1.106.874c1.18.843 2.577 1.464 4.187 1.859l2.098.293c2.071 0 4.029-.623 5.873-1.863v-6.282h-4.654v-1.336h5.932v10.76h-1.276v-1.396h-.059c-1.203.658-2.619 1.104-4.247 1.336l-1.688.06h-.581c-1.727 0-3.724-.639-5.993-1.918-1.355-.963-2.271-1.776-2.732-2.444-2.056-2.345-3.085-5.197-3.085-8.551 0-1.104.369-2.677 1.107-4.712.058-.011.251-.377.582-1.104 1.56-2.657 3.964-4.579 7.212-5.758 1.377-.351 2.697-.526 3.955-.526z" fill="#FFF" stroke="#fff" stroke-width="1.663" stroke-miterlimit="10"/><path fill="#FDFDFD" stroke="#FDFCF2" stroke-miterlimit="10" d="M41.832 162.563s-1.285-1.354-3.299-3.894a124.744 124.744 0 0 1-7.761-10.934 135.873 135.873 0 0 1-9.173-16.652c-2.915-6.359-5.609-13.412-7.194-20.98-.752-3.788-1.281-7.71-1.138-11.747.115-3.998.895-8.246 3.104-12.012 1.111-1.855 2.555-3.543 4.233-4.818 1.66-1.311 3.513-2.153 5.293-2.742 3.598-1.126 6.95-1.137 9.867-.873a38.67 38.67 0 0 1 7.706 1.495c2.216.61 4.076 1.331 5.584 1.951 1.523.574 2.659 1.185 3.448 1.544.779.39 1.195.596 1.195.596l-5.054-.422c-1.589-.146-3.525-.232-5.7-.312-2.177-.082-4.614.02-7.157.243-2.535.276-5.184.89-7.46 2.001-2.294 1.113-3.983 2.811-5.038 5.084-1.063 2.283-1.451 5.223-1.416 8.369.062 3.149.502 6.508 1.219 9.858 1.38 6.729 3.576 13.492 5.774 19.812 2.221 6.32 4.505 12.215 6.429 17.313 1.972 5.113 3.612 9.374 4.763 12.356a255.25 255.25 0 0 1 1.775 4.764zm87.896-99.298s-.05 1.863-.421 5.082a125.267 125.267 0 0 1-2.241 13.221 135.851 135.851 0 0 1-5.292 18.264c-2.434 6.556-5.514 13.445-9.746 19.922-2.148 3.209-4.548 6.357-7.5 9.108-2.91 2.747-6.467 5.2-10.69 6.302-2.099.525-4.311.699-6.398.412-2.104-.246-4.009-.961-5.684-1.803-3.339-1.749-5.718-4.111-7.596-6.361a38.593 38.593 0 0 1-4.39-6.506c-1.135-1.998-1.941-3.82-2.569-5.326-.671-1.483-1.044-2.719-1.348-3.533l-.425-1.266 3.276 3.873c1.021 1.227 2.328 2.656 3.808 4.252 1.483 1.598 3.279 3.25 5.234 4.889 1.988 1.6 4.295 3.037 6.689 3.859 2.412.836 4.805.827 7.156-.031 2.366-.863 4.723-2.668 6.923-4.918 2.184-2.271 4.245-4.957 6.108-7.832 3.781-5.731 7.01-12.07 9.924-18.092 2.902-6.041 5.451-11.823 7.697-16.789l5.371-12.108a255.606 255.606 0 0 1 2.114-4.619zM21.11 20.069s1.828-.367 5.051-.729c3.219-.361 7.836-.753 13.386-.774 5.553-.083 12.042.19 18.981 1.069 6.936.906 14.34 2.365 21.601 5.043 3.608 1.373 7.212 3.008 10.557 5.271 3.327 2.223 6.515 5.137 8.531 9.008.98 1.93 1.646 4.047 1.836 6.145.228 2.105-.041 4.121-.486 5.943-.958 3.646-2.727 6.49-4.501 8.823a38.278 38.278 0 0 1-5.358 5.735c-1.694 1.557-3.29 2.752-4.616 3.699-1.295.984-2.416 1.625-3.141 2.102l-1.139.697 3.04-4.059c.967-1.27 2.069-2.863 3.293-4.663 1.227-1.802 2.433-3.923 3.591-6.196 1.113-2.293 1.999-4.865 2.266-7.382.275-2.538-.269-4.868-1.631-6.97-1.371-2.113-3.656-4.005-6.342-5.646-2.703-1.618-5.78-3.025-8.999-4.199-6.435-2.404-13.336-4.133-19.857-5.623-6.534-1.478-12.742-2.668-18.084-3.747l-13-2.522a260.751 260.751 0 0 1-4.979-1.025z"/></svg>