<svg version="1.1" id="Calque_1" xmlns="http://www.w3.org/2000/svg" xmlns:xlink="http://www.w3.org/1999/xlink" x="0px" y="0px"
	 width="180px" height="81px" viewBox="0 0 400 178.667" enable-background="new 0 0 400 178.667" xml:space="preserve">
<g>
	<path fill="#FFFFFF" stroke="#ffffff" stroke-width="1.6634" stroke-miterlimit="10" d="M167.335,74.317h0.118l8.258-22.338h1.456
		v25.014h-1.28V55.586h-0.057l-8.028,21.407h-0.756c-0.069-0.008-0.438-0.923-1.107-2.733l-7.04-18.674h-0.058v21.407h-1.337V51.979
		h1.395c0.109,0.047,0.613,1.347,1.516,3.896L167.335,74.317z"/>
	<path fill="#FFFFFF" stroke="#ffffff" stroke-width="1.6634" stroke-miterlimit="10" d="M183.171,76.993h-1.281V51.979h1.281
		V76.993z"/>
	<path fill="#FFFFFF" stroke="#ffffff" stroke-width="1.6634" stroke-miterlimit="10" d="M207.557,64.137v0.696
		c0,3.037-1.203,5.887-3.605,8.553c-2.646,2.407-5.517,3.607-8.609,3.607h-7.446V51.979h6.863c3.84,0,7.078,1.414,9.718,4.247
		C206.529,58.687,207.557,61.325,207.557,64.137z M194.118,53.315h-4.888v22.283h7.101c1.123-0.117,2.15-0.391,3.084-0.816
		c0.443-0.115,1.315-0.639,2.614-1.57c2.794-2.461,4.189-5.371,4.189-8.725c0-3.006-1.183-5.739-3.55-8.205l-1.453-1.16
		c-1.795-1.068-3.522-1.65-5.179-1.746l-0.929-0.116L194.118,53.315z"/>
	<path fill="#FFFFFF" stroke="#ffffff" stroke-width="1.6634" stroke-miterlimit="10" d="M231.943,64.137v0.696
		c0,3.037-1.203,5.887-3.607,8.553c-2.646,2.407-5.518,3.607-8.609,3.607h-7.445V51.979h6.865c3.838,0,7.076,1.414,9.715,4.247
		C230.915,58.687,231.943,61.325,231.943,64.137z M218.505,53.315h-4.887v22.283h7.095c1.127-0.117,2.156-0.391,3.086-0.816
		c0.445-0.115,1.318-0.639,2.618-1.57c2.791-2.461,4.187-5.371,4.187-8.725c0-3.006-1.183-5.739-3.547-8.205l-1.453-1.16
		c-1.797-1.068-3.521-1.65-5.18-1.746l-0.932-0.116L218.505,53.315z"/>
	<path fill="#FFFFFF" stroke="#ffffff" stroke-width="1.6634" stroke-miterlimit="10" d="M238.062,75.655h18.267v1.338h-19.663
		V51.979h1.396V75.655L238.062,75.655z"/>
	<path fill="#FFFFFF" stroke="#ffffff" stroke-width="1.6634" stroke-miterlimit="10" d="M273.908,51.979h6.806v1.396h-6.979
		c-3.664,0-6.709,1.533-9.133,4.594c-1.076,1.506-1.754,3.191-2.033,5.062l-0.119,0.872h12.566v1.34h-12.566
		c0.193,1.978,0.853,3.857,1.978,5.643c1.405,1.928,3.093,3.266,5.062,4.016c1.144,0.541,2.733,0.814,4.77,0.814h6.457v1.277h-7.386
		c-3.434,0-6.516-1.434-9.248-4.306c-0.993-1.259-1.689-2.404-2.098-3.431c-0.619-1.824-0.93-3.414-0.93-4.77
		c0-1.707,0.467-3.608,1.396-5.703c1.444-2.627,3.501-4.546,6.167-5.758C270.293,52.328,272.059,51.979,273.908,51.979z"/>
	<path fill="#FFFFFF" stroke="#ffffff" stroke-width="1.6634" stroke-miterlimit="10" d="M310.016,51.979h6.807v1.396h-6.98
		c-3.665,0-6.711,1.533-9.134,4.594c-1.076,1.506-1.756,3.191-2.036,5.062l-0.118,0.872h12.567v1.34h-12.567
		c0.195,1.978,0.854,3.857,1.979,5.643c1.408,1.928,3.096,3.266,5.062,4.016c1.145,0.541,2.733,0.814,4.77,0.814h6.46v1.277h-7.389
		c-3.432,0-6.516-1.434-9.25-4.306c-0.988-1.259-1.688-2.404-2.096-3.431c-0.619-1.824-0.93-3.414-0.93-4.77
		c0-1.707,0.467-3.608,1.395-5.703c1.445-2.627,3.502-4.546,6.17-5.758C306.398,52.328,308.164,51.979,310.016,51.979z"/>
	<path fill="#FFFFFF" stroke="#ffffff" stroke-width="1.6634" stroke-miterlimit="10" d="M332.088,52.095
		c1.737,0.136,3.365,0.66,4.889,1.572c2.829,1.879,4.245,4.557,4.245,8.027v15.299h-1.339V65.302h-16.926v11.691h-1.413
		l0.017-14.717c0-3.055,0.95-5.536,2.851-7.448c1.174-1.218,2.938-2.073,5.293-2.56C329.859,52.194,330.652,52.133,332.088,52.095z
		 M322.897,62.335v1.685h16.984v-2.442c0-2.192-0.873-4.207-2.615-6.049c-1.834-1.32-3.716-1.996-5.646-2.037
		c-2.78,0-4.991,0.951-6.632,2.853C323.596,57.961,322.897,59.958,322.897,62.335z"/>
	<path fill="#FFFFFF" stroke="#ffffff" stroke-width="1.6634" stroke-miterlimit="10" d="M352.692,52.038h12.857v1.277h-11.812
		c-1.813,0-3.032,0.197-3.665,0.583c-1.784,0.981-2.675,2.571-2.675,4.771c0,2.095,0.969,3.685,2.907,4.769
		c0.756,0.273,1.396,0.408,1.92,0.408h7.972c0.783,0,1.772,0.406,2.967,1.221c1.551,1.406,2.326,3.193,2.326,5.354
		c0,2.598-1.104,4.559-3.315,5.875c-0.981,0.466-1.833,0.697-2.56,0.697h-13.67v-1.222h11.69c1.862,0,3.062-0.153,3.606-0.466
		c1.938-0.939,2.908-2.627,2.908-5.061c0-0.763-0.29-1.716-0.87-2.852c-0.582-0.957-1.533-1.656-2.852-2.092l-1.105-0.174h-7.795
		c-1.319,0-2.617-0.66-3.896-1.979c-1.049-1.378-1.572-2.794-1.572-4.245v-0.295c0-2.218,0.894-4.041,2.675-5.466
		C349.957,52.406,351.275,52.038,352.692,52.038z"/>
	<path fill="#FFFFFF" stroke="#ffffff" stroke-width="1.6634" stroke-miterlimit="10" d="M389.935,53.315h-9.134v23.678h-1.336
		V53.315h-9.192v-1.336h19.662V53.315z"/>
	<path fill="#FFFFFF" stroke="#ffffff" stroke-width="1.6634" stroke-miterlimit="10" d="M170.361,84.472h6.806v1.397h-6.98
		c-3.665,0-6.708,1.53-9.134,4.595c-1.074,1.504-1.755,3.193-2.036,5.061l-0.118,0.873h12.568v1.336h-12.568
		c0.195,1.979,0.854,3.859,1.98,5.645c1.406,1.931,3.094,3.267,5.06,4.015c1.144,0.543,2.735,0.815,4.771,0.815h6.458v1.277h-7.388
		c-3.434,0-6.516-1.434-9.251-4.305c-0.987-1.26-1.688-2.402-2.093-3.432c-0.621-1.824-0.932-3.414-0.932-4.771
		c0-1.707,0.467-3.606,1.395-5.703c1.447-2.627,3.504-4.545,6.17-5.758C166.744,84.821,168.508,84.472,170.361,84.472z"/>
	<path fill="#FFFFFF" stroke="#ffffff" stroke-width="1.6634" stroke-miterlimit="10" d="M181.89,84.472h1.573
		c0.288,0.29,1.958,2.559,5.004,6.805l3.312,4.54h0.06l6.749-9.133c1.006-1.408,1.568-2.146,1.687-2.212h1.395v0.059l-9.075,12.449
		l9.133,12.506h-1.57l-7.677-10.469l-0.641-0.814c-0.777,0.971-3.372,4.498-7.798,10.586l-0.578,0.697h-1.455l9.075-12.449
		L181.89,84.472z"/>
	<path fill="#FFFFFF" stroke="#ffffff" stroke-width="1.6634" stroke-miterlimit="10" d="M226.057,90.115v1.862
		c0,0.317-0.214,1.112-0.641,2.383c-0.766,1.406-1.932,2.433-3.491,3.084c-0.892,0.193-1.512,0.289-1.86,0.289h-12.275v11.752
		h-1.336V84.472h13.031c1.656,0,3.091,0.466,4.304,1.397c1.047,0.987,1.688,1.938,1.919,2.851L226.057,90.115z M217.795,85.81
		h-10.007v10.588h12.218c1.514,0,2.811-0.717,3.896-2.15c0.621-0.935,0.932-2,0.932-3.201c0-2.151-0.988-3.76-2.967-4.83
		c-0.844-0.311-1.6-0.451-2.27-0.421L217.795,85.81z"/>
	<path fill="#FFFFFF" stroke="#ffffff" stroke-width="1.6634" stroke-miterlimit="10" d="M240.436,84.704
		c1.996,0,3.877,0.504,5.644,1.512c1.688,1.135,2.831,2.416,3.433,3.84c0.348,0.621,0.641,1.631,0.872,3.025l0.058,1.104v5.758
		c0,2.716-0.93,5.005-2.791,6.863c-1.91,1.784-4.295,2.678-7.153,2.678h-0.524c-1.726,0-3.568-0.639-5.527-1.918
		c-2.441-1.979-3.666-4.713-3.666-8.202v-4.482c0-2.11,0.488-4.031,1.455-5.756c1.213-1.871,2.92-3.17,5.119-3.898
		C238.523,84.888,239.553,84.714,240.436,84.704z M232.176,94.828v4.422c0,4.274,1.994,7.088,5.99,8.436
		c1.085,0.193,1.842,0.289,2.27,0.289h0.465c1.591,0,3.199-0.504,4.83-1.512c0.893-0.623,1.57-1.32,2.035-2.092
		c0.639-0.809,1.105-2.127,1.396-3.959v-5.761c-0.036-2.646-1.163-4.896-3.372-6.746c-1.67-1.049-3.122-1.573-4.364-1.573
		l-0.756-0.116c-0.938,0-2.047,0.194-3.315,0.582c-1.996,0.756-3.472,2.117-4.42,4.073C232.428,92.16,232.176,93.479,232.176,94.828
		z"/>
	<path fill="#FFFFFF" stroke="#ffffff" stroke-width="1.6634" stroke-miterlimit="10" d="M276.54,84.704
		c1.999,0,3.879,0.504,5.646,1.512c1.687,1.135,2.826,2.416,3.431,3.84c0.35,0.621,0.641,1.631,0.872,3.025l0.059,1.104v5.758
		c0,2.716-0.931,5.005-2.792,6.863c-1.909,1.784-4.294,2.678-7.155,2.678h-0.521c-1.727,0-3.569-0.639-5.527-1.918
		c-2.443-1.979-3.665-4.713-3.665-8.202v-4.482c0-2.11,0.485-4.031,1.453-5.756c1.212-1.871,2.921-3.17,5.121-3.898
		C274.63,84.888,275.658,84.714,276.54,84.704z M268.279,94.828v4.422c0,4.274,1.996,7.088,5.99,8.436
		c1.09,0.193,1.844,0.289,2.271,0.289h0.465c1.59,0,3.202-0.504,4.828-1.512c0.894-0.623,1.571-1.32,2.038-2.092
		c0.64-0.809,1.104-2.127,1.395-3.959v-5.761c-0.037-2.646-1.162-4.896-3.373-6.746c-1.668-1.049-3.121-1.573-4.363-1.573
		l-0.756-0.116c-0.941,0-2.043,0.194-3.314,0.582c-1.999,0.756-3.471,2.117-4.421,4.073
		C268.529,92.16,268.279,93.479,268.279,94.828z"/>
	<path fill="#FFFFFF" stroke="#ffffff" stroke-width="1.6634" stroke-miterlimit="10" d="M310.876,90.291v1.688
		c-0.226,1.365-0.632,2.451-1.222,3.257c-1.322,1.667-3.067,2.499-5.238,2.499l6.398,11.17l-1.16,0.582
		c-4.385-7.678-6.651-11.596-6.809-11.752h-10.238v11.752h-1.338V84.472h13.496c1.279,0,2.54,0.447,3.78,1.338
		c0.756,0.639,1.319,1.359,1.688,2.152C310.66,88.953,310.876,89.724,310.876,90.291z M292.607,85.753v10.645h11.229
		c2.161,0,3.655-0.562,4.479-1.688c0.893-1.037,1.339-2.24,1.339-3.605c0-1.697-0.622-3.113-1.863-4.248
		c-1.096-0.736-2.123-1.104-3.084-1.104H292.607z"/>
	<path fill="#FFFFFF" stroke="#ffffff" stroke-width="1.6634" stroke-miterlimit="10" d="M328.453,84.472h6.805v1.453h-6.805
		c-2.799,0-5.266,0.893-7.385,2.678c-0.836,0.745-1.533,1.52-2.099,2.326c-1.104,1.715-1.726,3.383-1.859,5.002l-0.059,0.408v0.406
		l-0.059,0.233c0,0.94,0.251,2.239,0.755,3.896c0.729,1.658,1.716,3.094,2.969,4.306l1.106,0.874
		c1.18,0.843,2.577,1.464,4.187,1.859l2.098,0.293c2.071,0,4.029-0.623,5.873-1.863v-6.282h-4.654v-1.336h5.932v10.76h-1.276v-1.396
		h-0.059c-1.203,0.658-2.619,1.104-4.247,1.336l-1.688,0.06h-0.581c-1.727,0-3.724-0.639-5.993-1.918
		c-1.355-0.963-2.271-1.776-2.732-2.444c-2.056-2.345-3.085-5.197-3.085-8.551c0-1.104,0.369-2.677,1.107-4.712
		c0.058-0.011,0.251-0.377,0.582-1.104c1.56-2.657,3.964-4.579,7.212-5.758C325.875,84.647,327.195,84.472,328.453,84.472z"/>
</g>
<path fill="#FDFDFD" stroke="#FDFCF2" stroke-miterlimit="10" d="M41.832,162.563c0,0-1.285-1.354-3.299-3.894
	c-2.016-2.539-4.798-6.244-7.761-10.934c-3.021-4.66-6.233-10.305-9.173-16.652c-2.915-6.359-5.609-13.412-7.194-20.98
	c-0.752-3.788-1.281-7.71-1.138-11.747c0.115-3.998,0.895-8.246,3.104-12.012c1.111-1.855,2.555-3.543,4.233-4.818
	c1.66-1.311,3.513-2.153,5.293-2.742c3.598-1.126,6.95-1.137,9.867-0.873c2.929,0.265,5.501,0.83,7.706,1.495
	c2.216,0.61,4.076,1.331,5.584,1.951c1.523,0.574,2.659,1.185,3.448,1.544c0.779,0.39,1.195,0.596,1.195,0.596
	s-1.837-0.153-5.054-0.422c-1.589-0.146-3.525-0.232-5.7-0.312c-2.177-0.082-4.614,0.02-7.157,0.243
	c-2.535,0.276-5.184,0.89-7.46,2.001c-2.294,1.113-3.983,2.811-5.038,5.084c-1.063,2.283-1.451,5.223-1.416,8.369
	c0.062,3.149,0.502,6.508,1.219,9.858c1.38,6.729,3.576,13.492,5.774,19.812c2.221,6.32,4.505,12.215,6.429,17.313
	c1.972,5.113,3.612,9.374,4.763,12.356C41.206,160.808,41.832,162.563,41.832,162.563z"/>
<path fill="#FDFDFD" stroke="#FDFCF2" stroke-miterlimit="10" d="M129.728,63.265c0,0-0.05,1.863-0.421,5.082
	c-0.37,3.221-1.022,7.809-2.241,13.221c-1.161,5.433-2.88,11.695-5.292,18.264c-2.434,6.556-5.514,13.445-9.746,19.922
	c-2.148,3.209-4.548,6.357-7.5,9.108c-2.91,2.747-6.467,5.2-10.69,6.302c-2.099,0.525-4.311,0.699-6.398,0.412
	c-2.104-0.246-4.009-0.961-5.684-1.803c-3.339-1.749-5.718-4.111-7.596-6.361c-1.882-2.258-3.303-4.476-4.39-6.506
	c-1.135-1.998-1.941-3.82-2.569-5.326c-0.671-1.483-1.044-2.719-1.348-3.533c-0.276-0.825-0.425-1.266-0.425-1.266
	s1.192,1.408,3.276,3.873c1.021,1.227,2.328,2.656,3.808,4.252c1.483,1.598,3.279,3.25,5.234,4.889
	c1.988,1.6,4.295,3.037,6.689,3.859c2.412,0.836,4.805,0.827,7.156-0.031c2.366-0.863,4.723-2.668,6.923-4.918
	c2.184-2.271,4.245-4.957,6.108-7.832c3.781-5.731,7.01-12.07,9.924-18.092c2.902-6.041,5.451-11.823,7.697-16.789
	c2.222-5.008,4.074-9.184,5.371-12.108C128.93,64.946,129.728,63.265,129.728,63.265z"/>
<path fill="#FDFDFD" stroke="#FDFCF2" stroke-miterlimit="10" d="M21.11,20.069c0,0,1.828-0.367,5.051-0.729
	c3.219-0.361,7.836-0.753,13.386-0.774c5.553-0.083,12.042,0.19,18.981,1.069c6.936,0.906,14.34,2.365,21.601,5.043
	c3.608,1.373,7.212,3.008,10.557,5.271c3.327,2.223,6.515,5.137,8.531,9.008c0.98,1.93,1.646,4.047,1.836,6.145
	c0.228,2.105-0.041,4.121-0.486,5.943c-0.958,3.646-2.727,6.49-4.501,8.823c-1.778,2.343-3.624,4.224-5.358,5.735
	c-1.694,1.557-3.29,2.752-4.616,3.699c-1.295,0.984-2.416,1.625-3.141,2.102c-0.742,0.455-1.139,0.697-1.139,0.697
	s1.106-1.476,3.04-4.059c0.967-1.27,2.069-2.863,3.293-4.663c1.227-1.802,2.433-3.923,3.591-6.196
	c1.113-2.293,1.999-4.865,2.266-7.382c0.275-2.538-0.269-4.868-1.631-6.97c-1.371-2.113-3.656-4.005-6.342-5.646
	c-2.703-1.618-5.78-3.025-8.999-4.199c-6.435-2.404-13.336-4.133-19.857-5.623c-6.534-1.478-12.742-2.668-18.084-3.747
	c-5.378-1.044-9.862-1.914-13-2.522C22.931,20.47,21.11,20.069,21.11,20.069z"/>
</svg>
